# xmcd CD database file
# Copyright (C) 1993-1998 Ti Kan
# 
# Track frame offsets:
#     150
#     14837
#     32848
#     42280
#     56686
#     71848
#     87767
#     99808
#     119729
#     132909
#     151053
#     169463
#     185222
#     198589
#     210386
#     222079
#     237259
#     250126
#     269091
#     284153
#     294538
#     311559
# 
# Disc length: 4377 seconds
# 
# Revision: 1
# Processed by: cddbd v1.4b41PL1 Copyright (c) Steve Scherf et al.
# Submitted via: DiscPlay 4.0.4
# 
DISCID=5d111716
DTITLE=Bill Pinkey And The Original Drifters - Bill Pinkney And The Original
DTITLE=Drifters Anthology
DYEAR=1900
DGENRE=
TTITLE0=Ruby Baby
TTITLE1=I'm Tired (Of Being Your Fool)
TTITLE2=Give Me You
TTITLE3=Gonna Move Across The River
TTITLE4=W-P-L-J
TTITLE5=She Felt Too Good
TTITLE6=Ain't Got No Money
TTITLE7=Candlelight
TTITLE8=Fools Fall In Love
TTITLE9=Ol' Man River
TTITLE10=Just Hold My Hand
TTITLE11=Kissing In The Backrow
TTITLE12=Little Red Book
TTITLE13=White Christmas
TTITLE14=Christmas Just Ain't Christmas
TTITLE15=Little Drummer Boy
TTITLE16=Please Come Home For Christmas
TTITLE17=Silent Night
TTITLE18=Oh Holy Night
TTITLE19=Little St. Nick
TTITLE20=Santa Claus Is Coming To Town
TTITLE21=Santa Claus Got The Blues
EXTD=
EXTT0=
EXTT1=
EXTT2=
EXTT3=
EXTT4=
EXTT5=
EXTT6=
EXTT7=
EXTT8=
EXTT9=
EXTT10=
EXTT11=
EXTT12=
EXTT13=
EXTT14=
EXTT15=
EXTT16=
EXTT17=
EXTT18=
EXTT19=
EXTT20=
EXTT21=
PLAYORDER=
